<svg xmlns="http://www.w3.org/2000/svg" xmlns:xlink="http://www.w3.org/1999/xlink" preserveAspectRatio="xMidYMid" width="70" height="70" viewBox="0 0 40 40">
  <defs>
    <style>
      .cls-1 {
        fill: #000;
      }

      .cls-1, .cls-2 {
        fill-rule: evenodd;
      }

      .cls-2 {
        stroke: #fff;
        stroke-width: 2px;
        fill: none;
      }
    </style>
  </defs>
  <g>
    <path d="M-0.000,0.031 L40.000,-0.001 L40.000,39.969 L-0.000,39.999 L-0.000,0.031 Z" class="cls-1"/>
    <path d="M12.533,60.999 C12.533,60.999 17.026,33.531 5.000,30.999 C-7.026,28.467 -16.871,18.206 -14.767,1.345 C-11.631,-23.775 14.989,-24.098 24.232,-17.129 C33.475,-10.157 36.247,-1.522 32.323,11.159 C26.900,28.678 6.036,26.855 -0.000,17.999 C-6.036,9.143 -1.755,-8.826 13.444,-7.699 C21.672,-7.089 24.232,-1.773 24.232,3.077 C24.232,9.660 20.850,13.662 15.946,14.981 C11.041,16.300 5.178,13.281 5.000,9.000 C4.821,4.717 7.344,3.091 10.000,3.000 C12.656,2.908 14.908,3.886 15.000,6.999 C15.091,10.113 11.000,9.999 11.000,9.999 " class="cls-2"/>
    <path d="M36.693,69.999 C36.693,69.999 33.758,54.475 40.147,53.736 C46.537,52.997 54.108,46.515 52.862,37.262 C51.005,23.475 35.239,23.298 29.765,27.124 C24.291,30.950 22.725,35.667 24.973,42.648 C27.622,50.873 40.565,50.464 44.140,45.605 C47.715,40.746 45.156,31.680 36.154,32.299 C31.281,32.633 29.765,35.551 29.765,38.213 C29.765,41.825 31.768,44.021 34.672,44.745 C37.577,45.469 40.400,44.421 40.736,41.939 C41.071,39.457 39.491,37.883 37.704,37.262 C35.916,36.642 34.784,37.478 34.672,39.133 C34.561,40.788 36.693,41.939 36.693,41.939 " class="cls-2"/>
  </g>
</svg>
