<svg xmlns="http://www.w3.org/2000/svg" xmlns:xlink="http://www.w3.org/1999/xlink"><symbol id="logo-top" viewBox="0 0 40 40" preserveAspectRatio="xMidYMid"><path d="M0 .031l40-.032v39.97l-40 .03z"/><path d="M12.533 60.999s4.493-27.468-7.533-30-21.871-12.793-19.767-29.654c3.136-25.12 29.756-25.443 38.999-18.474 9.243 6.972 12.015 15.607 8.091 28.288C26.9 28.678 6.036 26.855 0 17.999-6.036 9.143-1.755-8.826 13.444-7.699c8.228.61 10.788 5.926 10.788 10.776 0 6.583-3.382 10.585-8.286 11.904C11.041 16.3 5.178 13.281 5 9c-.179-4.283 2.344-5.909 5-6 2.656-.092 4.908.886 5 3.999.091 3.114-4 3-4 3" fill="none" stroke="#fff" stroke-width="2"/><path d="M36.693 69.999s-2.935-15.524 3.454-16.263c6.39-.739 13.961-7.221 12.715-16.474-1.857-13.787-17.623-13.964-23.097-10.138-5.474 3.826-7.04 8.543-4.792 15.524 2.649 8.225 15.592 7.816 19.167 2.957 3.575-4.859 1.016-13.925-7.986-13.306-4.873.334-6.389 3.252-6.389 5.914 0 3.612 2.003 5.808 4.907 6.532 2.905.724 5.728-.324 6.064-2.806.335-2.482-1.245-4.056-3.032-4.677-1.788-.62-2.92.216-3.032 1.871-.111 1.655 2.021 2.806 2.021 2.806" fill="none" stroke="#fff" stroke-width="2"/></symbol><symbol id="temp-icon-left-arrow" viewBox="0 0 31.494 31.494"><path d="M10.273 5.01a1.117 1.117 0 011.587 1.57l-8.047 8.047h26.554c.62 0 1.127.492 1.127 1.11 0 .62-.508 1.128-1.127 1.128H3.813l8.047 8.032c.43.444.43 1.16 0 1.587a1.112 1.112 0 01-1.587 0L.32 16.532a1.12 1.12 0 010-1.57l9.953-9.953z" fill="#FFF"/></symbol><symbol id="temp-icon-right-arrow" viewBox="0 0 31.49 31.49"><path d="M21.205 5.007a1.117 1.117 0 00-1.587 1.57l8.047 8.048H1.11c-.618 0-1.11.493-1.11 1.112 0 .62.492 1.127 1.11 1.127h26.555l-8.047 8.032c-.43.444-.43 1.16 0 1.587.444.444 1.16.444 1.587 0l9.952-9.952a1.092 1.092 0 000-1.57l-9.952-9.95z" fill="#1E201D"/></symbol></svg>