<svg xmlns="http://www.w3.org/2000/svg" xmlns:xlink="http://www.w3.org/1999/xlink"><symbol id="arrow_btn" preserveAspectRatio="xMidYMid"><path d="M0 4.03h18v2H0z"/><path d="M14.508 10.013l4.476-4.475-1.492-1.493-4.476 4.477 1.492 1.491z"/><path d="M17.508 6.045l-4.523-4.523L14.492.014l4.523 4.523-1.507 1.508z" fill-rule="evenodd"/></symbol><symbol id="coll" preserveAspectRatio="xMidYMid"><path d="M8.112 16.582C1.078 11.392-2.06 3.954 1.529.976c1.268-1.052 1.942-.883 3.937.992C7.474 3.855 7.679 4.541 6.7 6.108c-.995 1.594-.69 2.363 2.004 5.058 2.74 2.74 3.4 2.993 4.791 1.838 1.375-1.141 1.922-1.031 3.698.745 4.958 4.958-2.885 7.405-9.081 2.833z" fill-opacity=".996"/></symbol><symbol id="deposit" preserveAspectRatio="xMidYMid"><path d="M3.533 21.88c-.977-.124-1.708-.48-2.392-1.164a3.74 3.74 0 01-1.102-2.16c-.034-.22-.045-1.978-.036-5.483l.015-5.158.104-.338c.44-1.43 1.46-2.427 2.844-2.78.326-.083.521-.094 1.628-.094H5.85l.318-.275c.175-.151 1.33-1.176 2.569-2.278C9.975 1.048 11.052.113 11.129.072c.182-.097.524-.096.703.002.078.042 1.291 1.1 2.697 2.353l2.555 2.275H18.8c1.86 0 1.89.004 2.435.283.336.17.773.644.96 1.039.219.459.255.782.257 2.27l.001 1.222.245.114c.383.177.854.65 1.042 1.047.087.183.18.444.21.581.031.155.05.92.05 2.04 0 1.983-.02 2.163-.292 2.672-.199.373-.614.781-.969.952l-.285.136-.002 1.22c0 .67-.022 1.377-.047 1.57-.114.876-.752 1.647-1.605 1.94l-.293.1-8.417.005c-4.63.003-8.48-.003-8.558-.013zm16.954-1.669c.088-.059.207-.178.265-.265.105-.155.107-.183.107-1.461v-1.303l-1.56-.015-1.558-.015-.422-.147c-1.073-.376-1.874-1.09-2.347-2.094-.23-.489-.31-.83-.337-1.445-.018-.405-.003-.645.056-.938a3.898 3.898 0 012.876-3.024c.42-.106.52-.112 1.87-.112h1.426l-.014-1.333c-.013-1.262-.019-1.34-.11-1.463a1.341 1.341 0 00-.226-.226c-.13-.096-.13-.096-8.485-.11-6.17-.011-8.422 0-8.613.039-.926.194-1.69 1.009-1.826 1.947-.064.439-.064 9.635 0 10.079.123.862.743 1.597 1.59 1.886l.307.104 8.421.001 8.422.001.158-.106zm1.539-4.679a1.03 1.03 0 00.287-.266l.117-.17.014-1.678c.015-1.8 0-1.949-.213-2.202-.23-.273-.262-.277-2.189-.277-1.102 0-1.85.02-2.006.052-.432.09-.831.312-1.166.647-.933.935-.933 2.366-.001 3.288.17.168.417.363.548.433.471.25.592.263 2.592.266 1.777.003 1.852 0 2.017-.093zm-3.841-1.556c-.293-.148-.42-.358-.42-.688 0-.46.298-.765.75-.765.375 0 .645.207.757.58.102.339-.095.728-.45.89-.25.113-.385.11-.637-.017zM14.66 4.663c-.022-.056-3.088-2.777-3.16-2.805-.056-.021-3.166 2.7-3.201 2.8-.01.028 1.184.045 3.18.045 1.759 0 3.19-.018 3.181-.04z" fill="#b8b8b8"/></symbol><symbol id="fast-delivery" viewBox="24 15.375" preserveAspectRatio="xMidYMid"><path d="M0 7.687V0h17.25v4.594H24V5.999l-3.363.012-3.364.012v.938l2.403.012 2.402.012V8.39l-2.402.012-2.403.012v.938l1.465.012 1.465.012V10.781H17.25v4.594H0zm15.844 4.665v-1.57H12.047V9.374H15.844v-.984H12.047V6.984H15.844V6H12.047V4.594H15.844v-3.14h-4.875v3.984H6.28V1.453H1.406V13.922h14.438zM9.552 2.73l.012-1.277h-1.83v2.58l.903-.012.902-.013z" fill="#b8b8b8"/></symbol><symbol id="instagram" preserveAspectRatio="xMidYMid"><path d="M4.985 26.973c-1.162-.18-1.953-.503-2.805-1.145-.983-.74-1.736-1.89-2.052-3.132L0 22.193V4.788l.128-.504c.138-.542.509-1.377.805-1.816.82-1.21 2.145-2.091 3.601-2.392C4.832.014 6.527 0 13.547 0h8.646l.503.128c.277.07.737.239 1.021.373 1.635.775 2.67 2.04 3.161 3.864.092.34.1.98.117 8.816.013 5.898 0 8.59-.043 8.92a5.75 5.75 0 01-2.44 3.947c-.41.277-1.246.652-1.784.8l-.479.131-8.561.008c-4.71.004-8.626-.002-8.703-.014zm17.202-2.328c.637-.163 1.069-.413 1.557-.901.488-.488.738-.92.9-1.556.109-.424.112-.654.112-8.698 0-8.043-.003-8.273-.111-8.697-.163-.636-.413-1.068-.901-1.556-.488-.488-.92-.738-1.557-.9-.423-.11-.653-.112-8.697-.112-8.043 0-8.273.003-8.697.111-.636.163-1.068.413-1.556.9-.488.489-.738.92-.9 1.557-.11.424-.112.654-.112 8.697 0 8.044.003 8.274.111 8.697.163.637.413 1.069.9 1.557.482.48.918.736 1.535.898.396.104.725.108 8.696.11 8.072.004 8.297 0 8.72-.107zm-9.429-3.867c-1.788-.224-3.404-1.024-4.569-2.262-3.695-3.929-2.077-10.268 3.057-11.979 2.506-.835 5.345-.19 7.272 1.651 1.115 1.066 1.922 2.562 2.189 4.063.097.544.097 1.935 0 2.479-.528 2.962-2.867 5.355-5.81 5.942-.424.085-1.774.152-2.139.106zm2-2.383c1.77-.467 3.15-1.844 3.642-3.637.103-.373.124-.597.123-1.296 0-.753-.017-.898-.151-1.34-.53-1.74-1.77-2.982-3.513-3.513-.447-.137-.582-.152-1.369-.152-.79 0-.92.015-1.377.154-1.721.525-2.977 1.78-3.502 3.502-.139.456-.154.587-.154 1.377 0 .787.015.922.152 1.369.589 1.93 2.108 3.29 4.074 3.645.456.083 1.57.024 2.075-.109zm6.074-11.201c-1.413-.506-1.537-2.437-.198-3.094.264-.13.394-.157.742-.157s.479.027.743.157c.97.477 1.236 1.704.556 2.564a1.696 1.696 0 01-1.843.53z"/></symbol><symbol id="logo-top" viewBox="0 0 40 40" preserveAspectRatio="xMidYMid"><path d="M0 .031l40-.032v39.97l-40 .03z"/><path d="M12.533 60.999s4.493-27.468-7.533-30-21.871-12.793-19.767-29.654c3.136-25.12 29.756-25.443 38.999-18.474 9.243 6.972 12.015 15.607 8.091 28.288C26.9 28.678 6.036 26.855 0 17.999-6.036 9.143-1.755-8.826 13.444-7.699c8.228.61 10.788 5.926 10.788 10.776 0 6.583-3.382 10.585-8.286 11.904C11.041 16.3 5.178 13.281 5 9c-.179-4.283 2.344-5.909 5-6 2.656-.092 4.908.886 5 3.999.091 3.114-4 3-4 3" fill="none" stroke="#fff" stroke-width="2"/><path d="M36.693 69.999s-2.935-15.524 3.454-16.263c6.39-.739 13.961-7.221 12.715-16.474-1.857-13.787-17.623-13.964-23.097-10.138-5.474 3.826-7.04 8.543-4.792 15.524 2.649 8.225 15.592 7.816 19.167 2.957 3.575-4.859 1.016-13.925-7.986-13.306-4.873.334-6.389 3.252-6.389 5.914 0 3.612 2.003 5.808 4.907 6.532 2.905.724 5.728-.324 6.064-2.806.335-2.482-1.245-4.056-3.032-4.677-1.788-.62-2.92.216-3.032 1.871-.111 1.655 2.021 2.806 2.021 2.806" fill="none" stroke="#fff" stroke-width="2"/></symbol><symbol id="radio" preserveAspectRatio="xMidYMid"><g stroke="#000" stroke-width="2" fill="none"><path d="M11 28.97c0-11.083 3.162-10.415 5.867-14.377 2.705-3.963 2.741-12.13-5.48-11.579-4.451.298-5.385 2.727-5.48 5.344-.095 2.616 1.592 4.007 3.653 4.453 2.061.447 3.937.006 4.567-1.781.63-1.787.174-3.061-.913-3.563-1.088-.502-2.938-.463-3.04 1.01-.102 1.473 1.668 1.665 2.126.772M8 28.97c.061-7.907-.435-11-5-11 0 5.782 4 4.096 4 8"/></g></symbol><symbol id="temp-icon-left-arrow" viewBox="0 0 31.494 31.494"><path d="M10.273 5.01a1.117 1.117 0 011.587 1.57l-8.047 8.047h26.554c.62 0 1.127.492 1.127 1.11 0 .62-.508 1.128-1.127 1.128H3.813l8.047 8.032c.43.444.43 1.16 0 1.587a1.112 1.112 0 01-1.587 0L.32 16.532a1.12 1.12 0 010-1.57l9.953-9.953z" fill="#FFF"/></symbol><symbol id="temp-icon-right-arrow" viewBox="0 0 31.49 31.49"><path d="M21.205 5.007a1.117 1.117 0 00-1.587 1.57l8.047 8.048H1.11c-.618 0-1.11.493-1.11 1.112 0 .62.492 1.127 1.11 1.127h26.555l-8.047 8.032c-.43.444-.43 1.16 0 1.587.444.444 1.16.444 1.587 0l9.952-9.952a1.092 1.092 0 000-1.57l-9.952-9.95z" fill="#1E201D"/></symbol><symbol id="viber" viewBox="0 0 28 31" preserveAspectRatio="xMidYMid"><path d="M6.893 31.894a.446.446 0 01-.13-.111l-.057-.076-.01-3.297-.011-3.298-.05-.054a.415.415 0 00-.194-.088c-2.085-.51-4.688-2.849-5.545-4.982-.129-.32-.184-.522-.289-1.045a30.687 30.687 0 010-12.137c.132-.655.226-.945.46-1.421.402-.818.933-1.536 1.722-2.325C4.032 1.816 5.419.974 6.609.74A42.49 42.49 0 0121.35.555c.774.125 1.21.21 1.447.28 1.802.535 3.967 2.387 5.016 4.29.294.534.436.932.572 1.604.307 1.51.486 2.9.587 4.552.037.596.037 2.564 0 3.174a31.43 31.43 0 01-.566 4.454 9.42 9.42 0 01-.183.775c-.59 1.808-2.604 3.948-4.617 4.905-.525.25-.851.352-1.52.473-2.635.479-5.603.723-8.187.675l-.641-.012-.321.32c-.176.177-1.522 1.556-2.991 3.065-1.469 1.51-2.702 2.76-2.74 2.781a.367.367 0 01-.313.001zm12.65-9.583c.045 0 .086.009.09.02.009.027.517-.11.711-.192.44-.185 1.068-.682 1.469-1.163.279-.335.632-.903.786-1.265a1.103 1.103 0 00-.028-.98c-.16-.319-.51-.622-1.708-1.48-.83-.593-1.633-1.132-1.84-1.237a1.39 1.39 0 00-1.262-.016c-.214.106-.43.313-.726.696-.476.615-.712.773-1.164.774-.237 0-.497-.07-.922-.247-1.083-.452-1.864-.963-2.616-1.71-.839-.836-1.502-1.878-2.009-3.157a5.407 5.407 0 01-.153-.43 1.107 1.107 0 01.076-.74c.083-.164.365-.429.828-.778.118-.09.254-.205.301-.257.342-.374.452-.898.299-1.42-.165-.566-1.365-2.318-2.354-3.438-.286-.324-.532-.455-.887-.471-.26-.013-.425.032-.749.204a5.385 5.385 0 00-1.277.91c-.658.635-1.06 1.35-1.104 1.958-.024.34 0 .414.525 1.679.728 1.752 1.508 3.228 2.439 4.616a18.54 18.54 0 003.615 4.024 22.87 22.87 0 002.568 1.818 30.889 30.889 0 003.988 1.993c.314.129 1.003.338 1.014.308.004-.01.045-.02.09-.02zm3.438-8.556c.193-.08.306-.272.306-.519 0-.33-.116-1.556-.194-2.043-.45-2.824-2.101-5.118-4.594-6.389-1.108-.564-2.29-.887-3.598-.98-.467-.035-.743-.022-.86.039-.195.102-.296.252-.297.446-.001.246.143.41.418.472.083.019.454.063.824.098.37.035.789.083.93.108a7.487 7.487 0 013.429 1.555c.327.262.872.8 1.13 1.116.74.91 1.258 1.95 1.519 3.053.12.512.17.897.248 1.953.05.674.053.699.116.831a.5.5 0 00.263.27.64.64 0 00.36-.01zm-2.263-.922c.214-.1.29-.273.29-.648-.006-1.19-.336-2.388-.917-3.324-.658-1.061-1.768-1.932-3.044-2.389-.575-.206-1.413-.365-1.968-.373-.195-.003-.226.002-.313.05a.585.585 0 00-.16.146c-.054.077-.067.118-.074.243-.01.193.034.316.15.415.107.092.174.11.672.176 1.28.17 2.119.506 2.915 1.167a4.77 4.77 0 011.585 2.587c.081.346.119.65.14 1.137.02.447.03.52.095.644.104.2.394.279.63.169zm-2.198-.75a.478.478 0 00.226-.347c.022-.137 0-.453-.054-.767-.255-1.49-1.22-2.358-2.801-2.52-.296-.03-.393-.01-.537.118-.228.2-.242.494-.034.708.11.113.25.158.62.2.208.023.39.057.515.097.593.19 1.028.672 1.196 1.33.023.09.061.312.084.493.059.461.119.584.334.685.145.069.332.07.45.002z"/></symbol></svg>