<svg height="384pt" viewBox="0 0 384 384" width="384pt" xmlns="http://www.w3.org/2000/svg"><path d="m304 0h-224c-44.113281 0-80 35.886719-80 80v224c0 44.113281 35.886719 80 80 80h224c44.113281 0 80-35.886719 80-80v-224c0-44.113281-35.886719-80-80-80zm48 304c0 26.472656-21.527344 48-48 48h-224c-26.472656 0-48-21.527344-48-48v-224c0-26.472656 21.527344-48 48-48h224c26.472656 0 48 21.527344 48 48zm0 0"/><path d="m192 88c-57.34375 0-104 46.65625-104 104s46.65625 104 104 104 104-46.65625 104-104-46.65625-104-104-104zm0 176c-39.695312 0-72-32.304688-72-72s32.304688-72 72-72 72 32.304688 72 72-32.304688 72-72 72zm0 0"/><path d="m304 56c-13.230469 0-24 10.769531-24 24s10.769531 24 24 24 24-10.769531 24-24-10.769531-24-24-24zm0 0"/></svg>