<?xml version="1.0" encoding="UTF-8"?>
<!DOCTYPE svg PUBLIC "-//W3C//DTD SVG 1.1//EN" "http://www.w3.org/Graphics/SVG/1.1/DTD/svg11.dtd">
<!-- Creator: CorelDRAW 2018 (64-Bit) -->
<svg xmlns="http://www.w3.org/2000/svg" xml:space="preserve" width="210mm" height="297mm" version="1.1" style="shape-rendering:geometricPrecision; text-rendering:geometricPrecision; image-rendering:optimizeQuality; fill-rule:evenodd; clip-rule:evenodd"
viewBox="0 0 21000 29700"
 xmlns:xlink="http://www.w3.org/1999/xlink">
 <defs>
  <style type="text/css">
   <![CDATA[
    .fil0 {fill:black}
   ]]>
  </style>
 </defs>
 <g id="Слой_x0020_1">
  <metadata id="CorelCorpID_0Corel-Layer"/>
  <path class="fil0" d="M13040 15028c-224,885 -1373,1985 -2285,2188 -1194,227 -2398,324 -3601,291 -24,0 -47,9 -64,26 -170,175 -1120,1150 -1120,1150l-1191 1222c-87,91 -240,29 -240,-96l0 -2508c0,-41 -29,-77 -70,-85 0,0 0,0 -1,0 -912,-203 -2060,-1303 -2284,-2188 -374,-1712 -374,-3447 0,-5159 224,-884 1372,-1984 2284,-2188 2086,-396 4201,-396 6287,0 913,204 2061,1304 2285,2188 373,1712 373,3448 0,5159zm-3914 -2870c-141,2 -216,-76 -231,-205 -10,-90 -18,-181 -39,-268 -43,-173 -134,-333 -279,-438 -69,-50 -146,-87 -228,-110 -103,-30 -210,-22 -313,-47 -112,-27 -174,-118 -156,-223 16,-95 109,-170 213,-162 652,47 1119,384 1185,1152 5,54 10,111 -2,163 -20,89 -86,133 -150,138 -141,2 64,-5 0,0zm1046 40c-2,21 -4,71 -16,117 -45,169 -301,190 -360,20 -17,-51 -20,-108 -20,-163 -1,-356 -78,-712 -258,-1022 -185,-319 -467,-587 -798,-749 -200,-98 -416,-159 -636,-195 -96,-16 -193,-26 -289,-39 -117,-16 -179,-91 -174,-206 6,-107 84,-185 202,-178 386,22 759,105 1102,287 698,370 1097,953 1214,1732 5,36 13,71 16,106 7,87 11,175 17,290 -2,21 -6,-115 0,0zm-2557 -3314c1683,47 3065,1163 3361,2827 51,283 69,573 91,861 9,121 -59,236 -190,237 -135,2 -195,-111 -204,-232 -17,-239 -29,-480 -62,-717 -175,-1254 -1174,-2291 -2422,-2513 -187,-34 -379,-42 -570,-62 -120,-13 -277,-20 -304,-170 -22,-125 83,-225 203,-231l97 0zm1982 7302c-141,-43 -274,-71 -399,-123 -1286,-533 -2470,-1222 -3408,-2277 -533,-601 -950,-1278 -1303,-1995 -167,-340 -308,-694 -452,-1045 -131,-320 62,-651 265,-892 191,-226 436,-400 702,-527 208,-100 412,-43 564,133 327,380 628,780 872,1221 150,271 108,602 -163,787 -66,44 -126,97 -188,148 -54,44 -104,89 -141,149 -68,110 -71,240 -28,359 335,920 900,1636 1826,2021 148,62 297,133 467,114 286,-34 379,-347 579,-511 196,-160 446,-163 657,-29 211,133 416,277 619,422 200,142 398,281 583,443 177,156 238,361 138,572 -183,388 -448,710 -831,916 -137.2,73.68 -237.12,76.04 -359,114z"/>
  <g id="_315026552">
  </g>
  <g id="_315026384">
  </g>
  <g id="_315026216">
  </g>
  <g id="_315026048">
  </g>
  <g id="_315025880">
  </g>
  <g id="_315025712">
  </g>
  <g id="_316172144">
  </g>
  <g id="_316171976">
  </g>
  <g id="_316171808">
  </g>
  <g id="_316171640">
  </g>
  <g id="_316171472">
  </g>
  <g id="_316171304">
  </g>
  <g id="_315031544">
  </g>
  <g id="_315031376">
  </g>
  <g id="_315031208">
  </g>
  <g id="_315031040">
  </g>
  <g id="_315030872">
  </g>
  <g id="_315030704">
  </g>
  <g id="_314008456">
  </g>
  <g id="_314008288">
  </g>
  <g id="_314008120">
  </g>
  <g id="_314007952">
  </g>
  <g id="_314007784">
  </g>
  <g id="_313929576">
  </g>
  <g id="_313929408">
  </g>
  <g id="_313929240">
  </g>
  <g id="_314534360">
  </g>
  <g id="_314534192">
  </g>
  <g id="_314534024">
  </g>
  <g id="_314524096">
  </g>
 </g>
</svg>
