<svg xmlns="http://www.w3.org/2000/svg" xmlns:xlink="http://www.w3.org/1999/xlink" preserveAspectRatio="xMidYMid" width="23.999954" height="21.894083" viewBox="0 0 23.999954 21.894083">
<path
     id="path825"
     d="m 3.5325506,21.880737 c -0.9764401,-0.12487 -1.7080458,-0.48114 -2.3914658,-1.16456 -0.61707702,-0.61708 -0.97035654,-1.30967 -1.10175259,-2.15995 -0.0341608,-0.22106 -0.0457114,-1.97814 -0.0360461,-5.48336 l 0.0142229,-5.1580599 0.10404413,-0.33738 c 0.44136895,-1.43121 1.46065956,-2.42759 2.84407766,-2.78016 0.3264796,-0.0832 0.5215269,-0.0945 1.6282752,-0.0945 h 1.2573654 l 0.3177213,-0.27484 c 0.1747473,-0.15116 1.3305778,-1.17629 2.5685131,-2.27807 1.2379352,-1.10179 2.3140952,-2.03687996 2.3914662,-2.07798996 0.181978,-0.0967 0.524512,-0.0956 0.703372,0.002 0.07737,0.0423 1.290688,1.10102996 2.69626,2.35270996 l 2.555586,2.27579 1.715922,10e-5 c 1.859225,9e-5 1.889342,0.004 2.435317,0.28213 0.335294,0.17106 0.772857,0.64462 0.960285,1.03929 0.217804,0.45863 0.254343,0.78244 0.256104,2.26959 l 0.0014,1.22288 0.245001,0.11352 c 0.38294,0.17744 0.853646,0.6505099 1.041742,1.0469899 0.08679,0.18293 0.180946,0.44442 0.209237,0.58109 0.03217,0.15541 0.05118,0.9195 0.05075,2.03978 -7.69e-4,1.98319 -0.02044,2.16347 -0.291537,2.6721 -0.198952,0.37328 -0.614751,0.78165 -0.969144,0.95185 l -0.284813,0.13679 -0.0021,1.21918 c -0.0011,0.67054 -0.02257,1.37721 -0.04763,1.57036 -0.11366,0.87598 -0.751351,1.64687 -1.604549,1.93972 l -0.292987,0.10057 -8.417022,0.005 c -4.6293619,0.003 -8.4803253,-0.003 -8.5576963,-0.0129 z m 16.9549454,-1.66976 c 0.08702,-0.0586 0.206196,-0.17782 0.264837,-0.26484 0.104549,-0.15513 0.106622,-0.18355 0.106622,-1.46137 v -1.30316 l -1.559142,-0.0146 -1.559142,-0.0146 -0.422023,-0.14778 c -1.072262,-0.37546 -1.873383,-1.09033 -2.346716,-2.09405 -0.230358,-0.48849 -0.309948,-0.8298 -0.33683,-1.44444 -0.01771,-0.40506 -0.0034,-0.64529 0.05574,-0.93783 0.301053,-1.48822 1.407386,-2.6513299 2.876339,-3.0239599 0.419953,-0.10653 0.51888,-0.11248 1.869651,-0.11248 h 1.426237 l -0.01378,-1.33307 c -0.01304,-1.26169 -0.01896,-1.34 -0.110462,-1.46246 -0.05317,-0.0712 -0.15495,-0.1729 -0.226169,-0.22608 -0.129478,-0.0967 -0.130151,-0.0967 -8.484462,-0.11096 -6.1706136,-0.0105 -8.4224002,-1.6e-4 -8.6128761,0.0397 -0.9264627,0.19395 -1.6912126,1.0089 -1.8267441,1.94666 -0.063436,0.43892 -0.063554,9.6354099 -1.313e-4,10.0790299 0.1232529,0.86208 0.7433016,1.59701 1.591333,1.88617 l 0.3058774,0.10429 8.4218101,0.001 8.42181,10e-4 0.158217,-0.10662 z m 1.538167,-4.67881 c 0.09422,-0.053 0.223701,-0.1727 0.287734,-0.2661 l 0.116423,-0.16981 0.01393,-1.67843 c 0.01493,-1.79973 5.91e-4,-1.94846 -0.212259,-2.20142 -0.229657,-0.27293 -0.262624,-0.2771 -2.189319,-0.2771 -1.102009,0 -1.850318,0.0193 -2.006117,0.0518 -0.432477,0.0902 -0.831228,0.31152 -1.166295,0.64739 -0.932518,0.93474 -0.932838,2.36574 -7.36e-4,3.28719 0.169923,0.16798 0.416666,0.36282 0.548316,0.43296 0.470942,0.25094 0.591611,0.26336 2.591187,0.2667 1.777948,0.003 1.852129,-4.7e-4 2.017139,-0.0932 z m -3.840931,-1.55664 c -0.292614,-0.14782 -0.420615,-0.3571 -0.420615,-0.6877 0,-0.45979 0.299351,-0.76503 0.750264,-0.76503 0.375284,0 0.646059,0.20722 0.757706,0.57986 0.101523,0.33886 -0.0954,0.72875 -0.449226,0.88945 -0.251691,0.11432 -0.385928,0.11083 -0.638129,-0.0166 z M 14.661463,4.6629571 c -0.02214,-0.0564 -3.088132,-2.77708 -3.161008,-2.80504 -0.05539,-0.0213 -3.1652538,2.69967 -3.200603,2.80032 -0.00976,0.0278 1.1845113,0.0445 3.180806,0.0445 1.75804,0 3.189403,-0.0179 3.180805,-0.0398 z"
     style="fill:#b8b8b8;fill-opacity:1;stroke-width:0.04689149" />
 </svg>
