<svg xmlns="http://www.w3.org/2000/svg" xmlns:xlink="http://www.w3.org/1999/xlink" preserveAspectRatio="xMidYMid" width="24" height="15.374976" viewBox="24 15.374976">
 <path
     id="path1478"
     d="M 0,7.6874998 V 0 H 8.6250002 17.25 V 2.2968749 4.5937498 H 20.625 24 v 0.7028151 0.702815 l -3.363281,0.012029 -3.363281,0.012029 v 0.4687498 0.4687501 l 2.402343,0.01214 2.402345,0.01214 v 0.702274 0.702274 l -2.402345,0.01214 -2.402343,0.01214 v 0.468751 0.468749 l 1.464844,0.01238 1.464844,0.01238 v 0.7024582 0.702457 H 18.726563 17.25 v 2.29688 2.296875 H 8.6250002 0 Z M 15.84375,12.351563 V 10.78125 H 13.945313 12.046875 V 10.078125 9.3749998 h 1.898438 1.898437 v -0.492187 -0.492188 h -1.898437 -1.898438 v -0.703125 -0.703124 h 1.898438 1.898437 V 6.4921873 6.0000001 H 13.945313 12.046875 V 5.296875 4.5937498 h 1.898438 1.898437 V 3.0234375 1.4531251 H 13.406251 10.96875 V 3.4453124 5.4375006 H 8.6250002 6.2812501 V 3.4453124 1.4531251 H 3.84375 1.40625 V 7.6874998 13.921875 H 8.6250002 15.84375 Z M 9.5515355,2.7304685 9.5640055,1.4531251 H 8.6491909 7.7343751 V 2.7432 4.0332749 l 0.9023438,-0.01273 0.9023436,-0.01273 z"
     style="fill:#b8b8b8;fill-opacity:1;stroke-width:0.046875" />
 </svg>
