<svg xmlns="http://www.w3.org/2000/svg" xmlns:xlink="http://www.w3.org/1999/xlink" preserveAspectRatio="xMidYMid" width="27.000002" height="26.988712" viewBox="0 0 27.000002 26.988712">
<path  id="path2488"  d="M 4.9849548,26.97309 C 3.8226164,26.79275 3.0323304,26.47004 2.1796869,25.82755 1.1969998,25.08708 0.44448773,23.93854 0.1282209,22.69647 L 0,22.19291 V 13.49036 4.78781 L 0.1282209,4.28425 C 0.26624153,3.7422 0.63651857,2.90689 0.93316657,2.46836 1.7520743,1.25778 3.0780393,0.3768 4.5343374,0.0757 4.831604,0.0142 6.5266206,0 13.546686,0 h 8.64622 l 0.503562,0.12822 c 0.276959,0.0705 0.736317,0.23848 1.020795,0.37324 1.634765,0.77439 2.669737,2.03951 3.160987,3.8639 0.09143,0.33953 0.09992,0.97982 0.117017,8.8152 0.01287,5.89885 -1.59e-4,8.59128 -0.04326,8.92022 -0.205903,1.57251 -1.122951,3.05607 -2.439647,3.94677 -0.409511,0.27702 -1.246816,0.65257 -1.784344,0.80033 l -0.47878,0.1316 -8.561731,0.008 c -4.7089516,0.004 -8.6250983,-0.002 -8.7025482,-0.0141 z M 22.187499,24.64452 c 0.636294,-0.16274 1.068397,-0.41282 1.5563,-0.90072 0.487902,-0.4879 0.737986,-0.92001 0.900723,-1.5563 0.108327,-0.42356 0.111271,-0.65368 0.111271,-8.69714 0,-8.04347 -0.0029,-8.27359 -0.111271,-8.69714 -0.162737,-0.6363 -0.412821,-1.0684 -0.900723,-1.5563 -0.487903,-0.4879 -0.920006,-0.73799 -1.5563,-0.90073 -0.423555,-0.10832 -0.653676,-0.11127 -8.697141,-0.11127 -8.0434644,0 -8.2735856,0.003 -8.6971402,0.11127 -0.6362949,0.16274 -1.0683984,0.41283 -1.5563005,0.90073 -0.4879022,0.4879 -0.7379859,0.92 -0.9007227,1.5563 -0.1083271,0.42355 -0.1112712,0.65367 -0.1112712,8.69714 0,8.04346 0.00294,8.27358 0.1112712,8.69714 0.1627368,0.63629 0.4128205,1.0684 0.9007227,1.5563 0.4810053,0.481 0.9175477,0.73657 1.5340907,0.89809 0.3955407,0.10363 0.7245116,0.10782 8.696258,0.1108 8.071862,0.003 8.296367,2.1e-4 8.720233,-0.10817 z M 12.758105,20.77821 C 10.970026,20.55412 9.3538678,19.75384 8.1893987,18.51588 4.4941788,14.58747 6.112008,8.2479 11.246272,6.53732 c 2.505943,-0.8349 5.344471,-0.19041 7.271963,1.6511 1.115064,1.06533 1.92136,2.56205 2.188625,4.06274 0.09684,0.54378 0.09684,1.93461 0,2.4784 -0.527591,2.96241 -2.86687,5.35531 -5.80972,5.94289 -0.424629,0.0848 -1.774017,0.1515 -2.139035,0.10576 z m 1.999615,-2.38292 c 1.770706,-0.46727 3.149491,-1.84418 3.642544,-3.63757 0.102397,-0.37245 0.123722,-0.59718 0.122935,-1.29553 -8.5e-4,-0.75341 -0.01727,-0.89856 -0.151669,-1.34039 C 17.842065,10.38116 16.601559,9.14049 14.858916,8.6087 14.412469,8.47246 14.277019,8.4575 13.490358,8.4575 c -0.790101,0 -0.920983,0.0146 -1.377236,0.15371 -1.721468,0.52487 -2.9770381,1.78044 -3.5019074,3.50191 -0.1391098,0.45625 -0.1537183,0.58714 -0.1537183,1.37724 0,0.78666 0.014965,0.92211 0.1512037,1.36856 0.5889592,1.92999 2.108757,3.28994 4.073912,3.64543 0.456499,0.0826 1.57083,0.024 2.075108,-0.10906 z M 20.831617,7.19356 C 19.418508,6.68846 19.294953,4.75747 20.63368,4.10006 20.897542,3.97048 21.027852,3.9429 21.376162,3.9429 c 0.348311,0 0.478621,0.0276 0.742483,0.15716 0.970232,0.47646 1.236349,1.70355 0.556084,2.56415 -0.421294,0.53297 -1.204026,0.75778 -1.843112,0.52935 z"
     style="fill:#000000;stroke-width:0.05632718" />
 </svg>
