<svg xmlns="http://www.w3.org/2000/svg" xmlns:xlink="http://www.w3.org/1999/xlink" preserveAspectRatio="xMidYMid" width="20" height="21" viewBox="0 0 28 31">
 <path
     id="path1933"
     d="m 6.8929295,31.893823 c -0.039301,-0.0194 -0.097405,-0.0692 -0.1291208,-0.11081 l -0.057666,-0.0756 -0.01076,-3.29791 -0.01076,-3.29791 -0.050113,-0.0533 c -0.032438,-0.0345 -0.1007502,-0.0657 -0.1936812,-0.0884 -2.0849249,-0.50954 -4.6882909,-2.8488 -5.54472254,-4.98222 -0.128674,-0.32053 -0.18436613,-0.52183 -0.28915508,-1.04517 -0.56043857,-2.79895 -0.732927,-5.60747 -0.51676787,-8.4142 0.0969728,-1.2591396 0.26491421,-2.4674596 0.51733886,-3.7221696 0.13175789,-0.65492 0.22563049,-0.94545 0.45918933,-1.42114 0.4018089,-0.81837 0.9335141,-1.53626 1.7220357,-2.32504 1.2435108,-1.24391 2.6295351,-2.08581996 3.8205556,-2.32068996 0.3720011,-0.0734 1.2148344,-0.21424 1.7431308,-0.29136 4.3228577,-0.63108 8.6791877,-0.59519 12.9981597,0.10708 0.773189,0.12572 1.208849,0.21032 1.446166,0.28082 1.802462,0.53546996 3.967581,2.38747996 5.016399,4.29094996 0.293834,0.53327 0.435933,0.93134 0.572313,1.60325 0.30632,1.50917 0.485677,2.89985 0.587007,4.5515096 0.0366,0.59659 0.03672,2.56485 2.01e-4,3.17422 -0.09616,1.60427 -0.267832,2.95377 -0.566668,4.45467 -0.06009,0.30182 -0.142448,0.65044 -0.183007,0.77472 -0.590021,1.80786 -2.604151,3.94782 -4.61668,4.9051 -0.525039,0.24974 -0.851783,0.35135 -1.52076,0.4729 -2.635046,0.47877 -5.602704,0.72336 -8.187022,0.67475 l -0.640936,-0.012 -0.320675,0.32065 c -0.176371,0.17636 -1.522398,1.55537 -2.9911724,3.06447 -1.4687729,1.5091 -2.701555,2.76076 -2.7395158,2.78148 -0.08611,0.047 -0.2196688,0.0476 -0.3133069,0.001 z m 12.6499725,-9.5833 c 0.04537,0 0.08572,0.009 0.08967,0.0208 0.0092,0.0266 0.51771,-0.11075 0.71167,-0.19224 0.43959,-0.1847 1.068098,-0.68242 1.468431,-1.16286 0.279014,-0.33485 0.631848,-0.90301 0.785831,-1.26541 0.143668,-0.33812 0.134849,-0.65563 -0.02721,-0.97941 -0.159744,-0.31916 -0.509918,-0.62239 -1.70872,-1.47968 -0.829999,-0.59355 -1.632107,-1.13314 -1.840217,-1.23794 -0.41069,-0.20682 -0.862304,-0.21234 -1.261446,-0.0154 -0.213468,0.10532 -0.429996,0.31276 -0.72583,0.69537 -0.475837,0.6154 -0.712505,0.77281 -1.163981,0.77417 -0.236688,7.1e-4 -0.497397,-0.069 -0.92198,-0.24644 -1.083366,-0.45282 -1.864069,-0.96357 -2.615873,-1.71137 -0.839273,-0.83479 -1.502589,-1.87692 -2.009028,-3.15636 -0.06639,-0.16772 -0.135312,-0.36102 -0.153161,-0.42955 -0.06207,-0.23831 -0.0324,-0.52832 0.07579,-0.74076 0.08333,-0.16361 0.365276,-0.42831 0.827885,-0.77723 0.118361,-0.0893 0.254026,-0.20487 0.301477,-0.25688 0.341327,-0.3741396 0.451426,-0.8979196 0.298746,-1.4212496 -0.164992,-0.56552 -1.364883,-2.31752 -2.3540616,-3.43723 -0.2862393,-0.32401 -0.5318418,-0.45458 -0.886575,-0.47131 -0.2611179,-0.0123 -0.4248727,0.0324 -0.7490075,0.20441 -0.5177018,0.27477 -0.9077818,0.55245 -1.2771724,0.90916 -0.6584097,0.63582 -1.0610101,1.35023 -1.1039068,1.95888 -0.023955,0.33989 -8.46e-4,0.41384 0.5245646,1.67857 0.7281288,1.7526896 1.5077875,3.2281396 2.4392313,4.6160696 1.0499438,1.5645 2.2176044,2.86434 3.6148604,4.02406 0.723667,0.60065 1.718411,1.30465 2.568561,1.81782 1.157183,0.69851 2.645421,1.44248 3.988035,1.99361 0.313537,0.1287 1.002413,0.33762 1.013753,0.30744 0.0039,-0.0105 0.0443,-0.0191 0.08967,-0.0191 z m 3.438532,-8.5554 c 0.192506,-0.0804 0.305425,-0.27215 0.30576,-0.51917 4.71e-4,-0.32939 -0.115823,-1.55559 -0.193717,-2.04291 -0.451325,-2.8236296 -2.101656,-5.1185396 -4.594301,-6.3887196 -1.108078,-0.56464 -2.290088,-0.88699 -3.597783,-0.98116 -0.467645,-0.0337 -0.7433,-0.021 -0.859778,0.0397 -0.195914,0.10197 -0.296239,0.25252 -0.297275,0.44609 -0.0013,0.24619 0.143071,0.40933 0.417542,0.47176 0.08323,0.0189 0.454025,0.0631 0.823984,0.0981 0.369959,0.035 0.788861,0.0835 0.930894,0.10777 1.244009,0.21237 2.40959,0.74122 3.428105,1.55541 0.327498,0.2618 0.872515,0.80014 1.129651,1.11581 0.740924,0.9096 1.258516,1.9499 1.519217,3.0534496 0.120881,0.51168 0.169861,0.89699 0.248265,1.95302 0.04999,0.67328 0.05346,0.69825 0.115514,0.83086 0.06298,0.13459 0.150994,0.22464 0.263413,0.2695 0.08184,0.0327 0.271566,0.0277 0.360509,-0.009 z m -2.263166,-0.92212 c 0.213359,-0.0993 0.290627,-0.27255 0.288943,-0.64771 -0.0053,-1.18949 -0.335566,-2.3879596 -0.91589,-3.3239996 -0.657986,-1.0613 -1.767903,-1.93229 -3.044754,-2.3893 -0.574292,-0.20555 -1.412981,-0.36471 -1.968056,-0.37348 -0.194296,-0.003 -0.225967,0.002 -0.312123,0.0504 -0.05274,0.0296 -0.125074,0.0954 -0.16075,0.14618 -0.05374,0.0765 -0.06633,0.11827 -0.07339,0.24324 -0.01087,0.19239 0.0335,0.31535 0.149696,0.41481 0.107547,0.0921 0.173598,0.10933 0.671989,0.17572 1.279539,0.17046 2.118683,0.50636 2.915072,1.16687 0.786794,0.65254 1.341979,1.55919 1.584513,2.5876096 0.08161,0.34606 0.11927,0.65027 0.140759,1.13711 0.01973,0.44702 0.03039,0.5195 0.09468,0.64382 0.103655,0.20045 0.394014,0.2783 0.62931,0.16874 z m -2.198467,-0.75046 c 0.118904,-0.0674 0.201605,-0.19377 0.226366,-0.34605 0.0223,-0.13711 1.35e-4,-0.45393 -0.0538,-0.76794 -0.255598,-1.4890696 -1.220738,-2.3571396 -2.801574,-2.5198196 -0.296093,-0.0305 -0.392404,-0.009 -0.536861,0.11783 -0.227894,0.2006 -0.242098,0.4949 -0.03418,0.70827 0.110058,0.11295 0.250882,0.15827 0.620988,0.19984 0.207658,0.0233 0.388475,0.0577 0.514025,0.0977 0.593254,0.18913 1.02791,0.6720596 1.196417,1.3292996 0.0232,0.0905 0.06104,0.31269 0.08407,0.49375 0.0586,0.46059 0.118434,0.58346 0.333523,0.68489 0.145234,0.0685 0.332386,0.0694 0.451028,0.002 z"
     style="stroke-width:0.02152013" />
 </svg>
